<svg width="416" height="416" viewBox="0 0 416 416" fill="none" xmlns="http://www.w3.org/2000/svg">
<circle cx="208" cy="208" r="208" fill="#7D9344"/>
<circle cx="208" cy="208" r="200" fill="#B0CC7E"/>
<circle cx="208" cy="208" r="186" fill="#FAD5B5"/>
<circle cx="208" cy="208" r="172" fill="#F2BA92"/>
<circle cx="208" cy="208" r="151" fill="#F3A56C"/>
<path d="M299.162 236.069C293.336 244.197 280.737 247.469 271.255 240.671C261.773 233.874 260.826 220.891 266.653 212.764C272.479 204.637 308.383 168.855 317.865 175.653C327.347 182.45 304.988 227.942 299.162 236.069Z" fill="#F2BA92"/>
<path d="M296.846 230.718C292.477 236.814 283.027 239.268 275.916 234.17C268.804 229.072 268.095 219.335 272.464 213.239C276.834 207.144 303.762 180.307 310.874 185.405C317.985 190.503 301.216 224.623 296.846 230.718Z" fill="black"/>
<circle r="4.5" transform="matrix(0.582633 -0.812735 -0.812735 -0.582633 286.856 226.632)" fill="#FFFBFB"/>
</svg>
